<?xml version="1.0" standalone="no"?><!DOCTYPE svg PUBLIC "-//W3C//DTD SVG 1.1//EN" "http://www.w3.org/Graphics/SVG/1.1/DTD/svg11.dtd"><svg t="1542011804156" class="icon" style="" viewBox="0 0 1024 1024" version="1.1" xmlns="http://www.w3.org/2000/svg" p-id="2984" xmlns:xlink="http://www.w3.org/1999/xlink" width="200" height="200"><defs><style type="text/css"></style></defs><path d="M863.36 760.512l-34.176 96.512-34.048-96.512c-24.64 7.232-53.504 23.488-53.504 60.224 0 25.152 0 42.688 0 54.656l87.552 0 87.552 0c0-11.968 0-29.504 0-54.656C916.736 784 887.872 767.744 863.36 760.512zM842.176 803.2l-10.112-33.408-5.568 0-9.6 33.408 12.352 33.344L842.176 803.2zM796.032 720c0 23.232 18.176 42.112 32.064 42.112 14.016 0 32.128-18.88 32.128-42.112s-6.656-42.048-32.128-42.048C802.624 677.952 796.032 696.768 796.032 720zM1024 638.848 1024 928 634.496 928 634.496 638.848 1024 638.848z" p-id="2985"></path><path d="M830.848 618.752 794.752 618.752 794.752 520.96 230.848 520.96 230.848 618.752 194.816 618.752 194.816 520.96 194.816 486.464 230.848 486.464 499.456 486.464 499.456 396.48 526.144 396.48 526.144 486.464 794.752 486.464 829.184 486.464 830.848 486.464Z" p-id="2986"></path><path d="M515.648 233.6 510.08 233.6 500.48 267.008l12.416 33.28 12.928-33.28L515.648 233.6zM706.752 385.216 317.248 385.216 317.248 96l389.504 0L706.752 385.216zM511.68 141.76c-25.472 0-32 18.816-32 42.048s18.112 42.176 32 42.176 32.128-18.944 32.128-42.176S537.152 141.76 511.68 141.76zM600.384 284.608c0-36.672-28.864-52.992-53.376-60.288L512.768 320.768 478.656 224.256C454.08 231.616 425.216 247.936 425.216 284.608c0 25.152 0 42.688 0 54.72l87.552 0 87.616 0C600.384 327.296 600.384 309.696 600.384 284.608z" p-id="2987"></path><path d="M193.664 677.952c-25.472 0-32.128 18.816-32.128 42.048 0 23.36 18.176 42.112 32.128 42.112 13.888 0 32.064-18.752 32.064-42.112C225.792 696.768 219.136 677.952 193.664 677.952zM194.88 836.48l12.928-33.344-10.24-33.344L192.064 769.792 182.4 803.2 194.88 836.48zM228.928 760.576l-34.112 96.448L160.64 760.576c-24.512 7.168-53.376 23.552-53.376 60.16 0 25.152 0 42.688 0 54.784l87.616 0 87.488 0c0-12.096 0-29.696 0-54.784C282.304 784.128 253.44 767.744 228.928 760.576zM389.504 638.848 389.504 928 0 928 0 638.848 389.504 638.848z" p-id="2988"></path></svg>